# xmcd
#
# Track frame offsets:
#	150
#	11327
#	23180
#	35313
#	53517
#	66349
#	81535
#	92726
#	106136
#	118199
#	130275
#	145377
#	156186
#
# Disc length: 2257 seconds
# Revision: 1
# Processed by: cddbd v1.5.2PL0 Copyright (c) Steve Scherf et al.
# Submitted via: dBpowerAMP V12.0
#
DISCID=ab08cf0d
DTITLE=SaraLee - Queen Of Your Heart
DYEAR=2016
DGENRE=Blues
TTITLE0=Oh Oh
TTITLE1=Voodoo Voodoo
TTITLE2=New York City Bank
TTITLE3=Stay By My Side
TTITLE4=Queen Of Your Heart
TTITLE5=Bahama Mama
TTITLE6=Ain't That Kinda Girl
TTITLE7=Gypsy In Me
TTITLE8=Tongue Is Tied
TTITLE9=Mr. Valentine
TTITLE10=Down The Line
TTITLE11=Don't Bring Me Down
TTITLE12=Now Go
EXTD=
EXTT0=
EXTT1=
EXTT2=
EXTT3=
EXTT4=
EXTT5=
EXTT6=
EXTT7=
EXTT8=
EXTT9=
EXTT10=
EXTT11=
EXTT12=
PLAYORDER=
